<svg xmlns="http://www.w3.org/2000/svg"  viewBox="0 0 48 48" width="48px" height="48px"><path fill="#ef4823" d="M4.603,11.851c0,0,2.514,2.904,4.748,3.191c0,0,2.946-3.108,8.271-2.208l5.692,32.899L29.5,13.5 c0,0,4.585-1.894,8,3c0,0,3.67-2.417,5.362-4.427c0,0-6.223-2.712-14.362-3.573l-4.883,4.723L19.66,8.5 C19.66,8.5,12.494,9.011,4.603,11.851z"/><path fill="#ef4823" d="M2.162,6.928l1.02,2.265c0,0,15.204-4.316,21.592-3.749c4.045,0.359,3.758-0.548,18.862,4.166 l1.47-2.197c0,0-13.551-4.789-20.451-4.607C19.915,2.931,17.976,2.309,2.162,6.928z"/><path fill="#010101" d="M23.5,47c-0.229,0-0.43-0.156-0.485-0.38c-2.513-10.157-5.432-30.492-5.84-33.376 c-1.121-0.215-2.323-0.049-3.366,0.15c-0.846,0.161-1.729,0.37-2.453,0.812l-0.231,0.14c-0.712,0.425-1.057,0.654-1.128,1.217 c-0.021,0.16-0.116,0.3-0.258,0.377c-0.142,0.076-0.311,0.081-0.456,0.011c-3.075-1.484-5.176-3.563-5.264-3.651 c-0.118-0.117-0.169-0.287-0.137-0.45c0.032-0.164,0.144-0.301,0.298-0.365C8.591,9.646,17.896,8,19.5,8 c1.003,0,2.224,1.653,4.102,4.709c0.211-0.195,0.449-0.414,0.708-0.65c1.166-1.066,2.764-2.526,3.794-3.864 c0.11-0.142,0.292-0.213,0.467-0.189c5.987,0.848,10.453,1.96,14.48,3.605c0.154,0.063,0.267,0.198,0.3,0.361 c0.034,0.163-0.016,0.333-0.132,0.451c-1.481,1.511-3.323,3.391-5.487,4.521c-0.241,0.125-0.545,0.032-0.674-0.21 c-0.091-0.173-2.25-4.11-7.122-2.836L23.992,46.59c-0.042,0.231-0.241,0.402-0.477,0.41C23.511,47,23.505,47,23.5,47z M16.038,12.143c0.569,0,1.146,0.058,1.712,0.208c0.195,0.052,0.34,0.215,0.367,0.414c0.029,0.212,2.775,19.84,5.321,31.278 l5.569-30.633c0.034-0.185,0.169-0.336,0.35-0.39c4.83-1.436,7.499,1.639,8.313,2.814c1.619-0.938,3.074-2.331,4.307-3.576 c-3.706-1.438-7.845-2.441-13.264-3.223c-1.078,1.337-2.601,2.729-3.729,3.761c-0.458,0.418-0.854,0.78-1.131,1.057 c-0.109,0.108-0.263,0.165-0.412,0.143c-0.152-0.018-0.287-0.104-0.367-0.234l-0.187-0.304C22.223,12.37,20.199,9.062,19.498,9 c-1.473,0-9.663,1.441-14.195,3.117c0.737,0.639,2.128,1.743,3.887,2.667c0.297-0.625,0.866-0.965,1.422-1.297l0.224-0.135 c0.861-0.524,1.848-0.762,2.786-0.94C14.37,12.27,15.195,12.143,16.038,12.143z"/><path fill="#010101" d="M43.642,10.11c-0.247,0-0.469-0.073-0.63-0.127l-0.899-0.296 C36.386,7.801,30.464,5.85,24.429,5.786c-1.527-0.007-3.171,0.084-5.18,0.315C13.975,6.706,8.757,7.896,3.74,9.637 C3.592,9.689,3.283,9.802,2.961,9.642C2.693,9.51,2.58,9.265,2.519,9.133c0,0,0,0,0-0.001C2.26,8.57,1.705,7.314,1.705,7.314 C1.597,7.07,1.699,6.785,1.938,6.666C6.883,4.18,12.447,3.3,16.743,2.811c4.373-0.497,10.918-0.992,17.246,0.45 c3.749,0.854,11.082,3.605,11.393,3.723c0.227,0.085,0.359,0.319,0.316,0.558c-0.146,0.797-0.543,1.551-1.119,2.125 c-0.148,0.148-0.357,0.33-0.645,0.407C43.834,10.1,43.735,10.11,43.642,10.11z M24.11,4.784c0.11,0,0.22,0.001,0.328,0.002 c6.191,0.064,12.188,2.041,17.986,3.951l0.9,0.297c0.104,0.034,0.278,0.096,0.353,0.072c0.042-0.011,0.108-0.062,0.195-0.148 c0.335-0.334,0.589-0.748,0.738-1.194c-1.639-0.606-7.666-2.804-10.845-3.528c-6.181-1.408-12.611-0.92-16.91-0.431 C12.768,4.27,7.512,5.094,2.813,7.349C2.994,7.754,3.256,8.343,3.416,8.69c5.086-1.765,10.374-2.97,15.719-3.583 C21.043,4.888,22.635,4.784,24.11,4.784z"/></svg>